<svg width="90" height="113" viewBox="0 0 90 113" fill="none" xmlns="http://www.w3.org/2000/svg">
<path d="M51.936 12.032C51.68 14.464 51.488 16.832 51.36 19.136C51.296 21.376 51.264 23.104 51.264 24.32C51.264 25.856 51.296 27.296 51.36 28.64C51.424 29.984 51.488 31.168 51.552 32.192H49.344C48.896 27.712 48.288 24.192 47.52 21.632C46.752 19.008 45.408 17.12 43.488 15.968C41.568 14.816 38.592 14.24 34.56 14.24H28.512C26.336 14.24 24.672 14.432 23.52 14.816C22.432 15.136 21.696 15.872 21.312 17.024C20.928 18.112 20.736 19.84 20.736 22.208V69.824C20.736 72.128 20.96 73.856 21.408 75.008C21.92 76.16 22.88 76.928 24.288 77.312C25.696 77.696 27.744 77.952 30.432 78.08V80C28.768 79.872 26.656 79.808 24.096 79.808C21.536 79.744 18.944 79.712 16.32 79.712C13.824 79.712 11.488 79.744 9.312 79.808C7.136 79.808 5.376 79.872 4.032 80V78.08C6.208 77.952 7.84 77.696 8.928 77.312C10.08 76.928 10.848 76.16 11.232 75.008C11.616 73.856 11.808 72.128 11.808 69.824V22.208C11.808 19.84 11.616 18.112 11.232 17.024C10.848 15.872 10.08 15.104 8.928 14.72C7.84 14.272 6.208 14.016 4.032 13.952V12.032C6.4 12.096 8.896 12.16 11.52 12.224C14.144 12.224 16.736 12.256 19.296 12.32C21.856 12.32 24.224 12.32 26.4 12.32C28.64 12.32 30.464 12.32 31.872 12.32C34.816 12.32 38.144 12.32 41.856 12.32C45.632 12.256 48.992 12.16 51.936 12.032ZM37.056 45.824C37.056 45.824 37.056 46.144 37.056 46.784C37.056 47.424 37.056 47.744 37.056 47.744H17.856C17.856 47.744 17.856 47.424 17.856 46.784C17.856 46.144 17.856 45.824 17.856 45.824H37.056ZM38.88 33.152C38.624 36.8 38.496 39.584 38.496 41.504C38.56 43.424 38.592 45.184 38.592 46.784C38.592 48.384 38.624 50.144 38.688 52.064C38.752 53.984 38.912 56.768 39.168 60.416H36.96C36.704 58.368 36.384 56.384 36 54.464C35.68 52.48 34.912 50.88 33.696 49.664C32.544 48.384 30.56 47.744 27.744 47.744V45.824C29.856 45.824 31.456 45.408 32.544 44.576C33.696 43.68 34.528 42.56 35.04 41.216C35.552 39.872 35.904 38.496 36.096 37.088C36.288 35.616 36.48 34.304 36.672 33.152H38.88Z" fill="#B88D51"/>
<path d="M59.008 20.552L82.432 80.936C83.392 83.368 84.48 85 85.696 85.832C86.912 86.6 88.032 87.016 89.056 87.08V89C87.776 88.872 86.208 88.808 84.352 88.808C82.496 88.744 80.64 88.712 78.784 88.712C76.288 88.712 73.952 88.744 71.776 88.808C69.6 88.808 67.84 88.872 66.496 89V87.08C69.76 86.952 71.84 86.408 72.736 85.448C73.632 84.424 73.44 82.28 72.16 79.016L54.304 31.304L55.84 30.056L39.136 73.448C38.112 76.008 37.504 78.184 37.312 79.976C37.12 81.704 37.28 83.08 37.792 84.104C38.368 85.128 39.296 85.864 40.576 86.312C41.92 86.76 43.584 87.016 45.568 87.08V89C43.776 88.872 41.888 88.808 39.904 88.808C37.984 88.744 36.192 88.712 34.528 88.712C32.928 88.712 31.552 88.744 30.4 88.808C29.312 88.808 28.288 88.872 27.328 89V87.08C28.608 86.76 29.92 86.024 31.264 84.872C32.608 83.656 33.824 81.608 34.912 78.728L57.472 20.552C57.728 20.552 57.984 20.552 58.24 20.552C58.496 20.552 58.752 20.552 59.008 20.552ZM70.72 61.352V63.272H42.112L43.072 61.352H70.72Z" fill="#B88D51"/>
</svg>
