<svg width="233" height="88" viewBox="0 0 233 88" fill="none" xmlns="http://www.w3.org/2000/svg">
<path d="M75.656 36.672C75.6133 37.0773 75.5813 37.472 75.56 37.856C75.5493 38.2293 75.544 38.5173 75.544 38.72C75.544 38.976 75.5493 39.216 75.56 39.44C75.5707 39.664 75.5813 39.8613 75.592 40.032H75.224C75.1493 39.2853 75.048 38.6987 74.92 38.272C74.792 37.8347 74.568 37.52 74.248 37.328C73.928 37.136 73.432 37.04 72.76 37.04H71.752C71.3893 37.04 71.112 37.072 70.92 37.136C70.7387 37.1893 70.616 37.312 70.552 37.504C70.488 37.6853 70.456 37.9733 70.456 38.368V46.304C70.456 46.688 70.4933 46.976 70.568 47.168C70.6533 47.36 70.8133 47.488 71.048 47.552C71.2827 47.616 71.624 47.6587 72.072 47.68V48C71.7947 47.9787 71.4427 47.968 71.016 47.968C70.5893 47.9573 70.1573 47.952 69.72 47.952C69.304 47.952 68.9147 47.9573 68.552 47.968C68.1893 47.968 67.896 47.9787 67.672 48V47.68C68.0347 47.6587 68.3067 47.616 68.488 47.552C68.68 47.488 68.808 47.36 68.872 47.168C68.936 46.976 68.968 46.688 68.968 46.304V38.368C68.968 37.9733 68.936 37.6853 68.872 37.504C68.808 37.312 68.68 37.184 68.488 37.12C68.3067 37.0453 68.0347 37.0027 67.672 36.992V36.672C68.0667 36.6827 68.4827 36.6933 68.92 36.704C69.3573 36.704 69.7893 36.7093 70.216 36.72C70.6427 36.72 71.0373 36.72 71.4 36.72C71.7733 36.72 72.0773 36.72 72.312 36.72C72.8027 36.72 73.3573 36.72 73.976 36.72C74.6053 36.7093 75.1653 36.6933 75.656 36.672ZM73.176 42.304C73.176 42.304 73.176 42.3573 73.176 42.464C73.176 42.5707 73.176 42.624 73.176 42.624H69.976C69.976 42.624 69.976 42.5707 69.976 42.464C69.976 42.3573 69.976 42.304 69.976 42.304H73.176ZM73.48 40.192C73.4373 40.8 73.416 41.264 73.416 41.584C73.4267 41.904 73.432 42.1973 73.432 42.464C73.432 42.7307 73.4373 43.024 73.448 43.344C73.4587 43.664 73.4853 44.128 73.528 44.736H73.16C73.1173 44.3947 73.064 44.064 73 43.744C72.9467 43.4133 72.8187 43.1467 72.616 42.944C72.424 42.7307 72.0933 42.624 71.624 42.624V42.304C71.976 42.304 72.2427 42.2347 72.424 42.096C72.616 41.9467 72.7547 41.76 72.84 41.536C72.9253 41.312 72.984 41.0827 73.016 40.848C73.048 40.6027 73.08 40.384 73.112 40.192H73.48ZM84.7654 36.672C84.7227 37.0453 84.6907 37.408 84.6694 37.76C84.6587 38.112 84.6534 38.3787 84.6534 38.56C84.6534 38.752 84.6587 38.9387 84.6694 39.12C84.68 39.2907 84.6907 39.4347 84.7014 39.552H84.3334C84.2694 38.9227 84.1787 38.4267 84.0614 38.064C83.944 37.6907 83.7414 37.4293 83.4534 37.28C83.176 37.12 82.7547 37.04 82.1894 37.04H80.8614C80.4987 37.04 80.2214 37.072 80.0294 37.136C79.848 37.1893 79.7254 37.312 79.6614 37.504C79.5974 37.6853 79.5654 37.9733 79.5654 38.368V46.304C79.5654 46.688 79.5974 46.976 79.6614 47.168C79.7254 47.36 79.848 47.488 80.0294 47.552C80.2214 47.6053 80.4987 47.632 80.8614 47.632H82.0294C82.7014 47.632 83.208 47.5413 83.5494 47.36C83.9014 47.1787 84.152 46.8853 84.3014 46.48C84.4614 46.064 84.5787 45.504 84.6534 44.8H85.0214C84.9894 45.088 84.9734 45.472 84.9734 45.952C84.9734 46.1547 84.9787 46.448 84.9894 46.832C85.0107 47.2053 85.0427 47.5947 85.0854 48C84.5414 47.9787 83.928 47.968 83.2454 47.968C82.5627 47.9573 81.9547 47.952 81.4214 47.952C81.1867 47.952 80.8827 47.952 80.5094 47.952C80.1467 47.952 79.752 47.9573 79.3254 47.968C78.8987 47.968 78.4667 47.9733 78.0294 47.984C77.592 47.984 77.176 47.9893 76.7814 48V47.68C77.144 47.6587 77.416 47.616 77.5974 47.552C77.7894 47.488 77.9174 47.36 77.9814 47.168C78.0454 46.976 78.0774 46.688 78.0774 46.304V38.368C78.0774 37.9733 78.0454 37.6853 77.9814 37.504C77.9174 37.312 77.7894 37.184 77.5974 37.12C77.416 37.0453 77.144 37.0027 76.7814 36.992V36.672C77.176 36.6827 77.592 36.6933 78.0294 36.704C78.4667 36.704 78.8987 36.7093 79.3254 36.72C79.752 36.72 80.1467 36.72 80.5094 36.72C80.8827 36.72 81.1867 36.72 81.4214 36.72C81.912 36.72 82.4667 36.72 83.0854 36.72C83.7147 36.7093 84.2747 36.6933 84.7654 36.672ZM82.0134 42.144C82.0134 42.144 82.0134 42.1973 82.0134 42.304C82.0134 42.4107 82.0134 42.464 82.0134 42.464H79.0854C79.0854 42.464 79.0854 42.4107 79.0854 42.304C79.0854 42.1973 79.0854 42.144 79.0854 42.144H82.0134ZM82.4774 40.032C82.4347 40.64 82.4134 41.104 82.4134 41.424C82.424 41.744 82.4294 42.0373 82.4294 42.304C82.4294 42.5707 82.4347 42.864 82.4454 43.184C82.456 43.504 82.4827 43.968 82.5254 44.576H82.1574C82.1147 44.2347 82.0614 43.904 81.9974 43.584C81.944 43.2533 81.816 42.9867 81.6134 42.784C81.4214 42.5707 81.0907 42.464 80.6214 42.464V42.144C80.9734 42.144 81.24 42.0747 81.4214 41.936C81.6134 41.7867 81.752 41.6 81.8374 41.376C81.9227 41.152 81.9814 40.9227 82.0134 40.688C82.0454 40.4427 82.0774 40.224 82.1094 40.032H82.4774ZM86.5314 36.672C86.7554 36.6827 87.0487 36.6933 87.4114 36.704C87.774 36.7147 88.1314 36.72 88.4834 36.72C88.9847 36.72 89.4647 36.7147 89.9234 36.704C90.382 36.6933 90.7074 36.688 90.8994 36.688C91.7634 36.688 92.478 36.8107 93.0434 37.056C93.6194 37.3013 94.046 37.6373 94.3234 38.064C94.6114 38.48 94.7554 38.9493 94.7554 39.472C94.7554 39.792 94.6914 40.1333 94.5634 40.496C94.4354 40.8587 94.2114 41.2 93.8914 41.52C93.582 41.84 93.1554 42.1067 92.6114 42.32C92.0674 42.5227 91.3794 42.624 90.5474 42.624H89.0114V42.304H90.3874C91.1447 42.304 91.7207 42.1867 92.1154 41.952C92.5207 41.7067 92.7927 41.3867 92.9314 40.992C93.0807 40.5867 93.1554 40.1387 93.1554 39.648C93.1554 38.8053 92.9527 38.1547 92.5474 37.696C92.1527 37.2267 91.47 36.992 90.4994 36.992C90.0087 36.992 89.6887 37.0827 89.5394 37.264C89.39 37.4453 89.3154 37.8133 89.3154 38.368V46.304C89.3154 46.688 89.3474 46.976 89.4114 47.168C89.4754 47.36 89.598 47.488 89.7794 47.552C89.9714 47.616 90.2487 47.6587 90.6114 47.68V48C90.366 47.9787 90.0567 47.968 89.6834 47.968C89.3207 47.9573 88.9527 47.952 88.5794 47.952C88.1634 47.952 87.774 47.9573 87.4114 47.968C87.0487 47.968 86.7554 47.9787 86.5314 48V47.68C86.894 47.6587 87.166 47.616 87.3474 47.552C87.5394 47.488 87.6674 47.36 87.7314 47.168C87.7954 46.976 87.8274 46.688 87.8274 46.304V38.368C87.8274 37.9733 87.7954 37.6853 87.7314 37.504C87.6674 37.312 87.5394 37.184 87.3474 37.12C87.166 37.0453 86.894 37.0027 86.5314 36.992V36.672ZM89.0754 42.352C89.6514 42.3733 90.1047 42.4 90.4354 42.432C90.766 42.4533 91.0327 42.4747 91.2354 42.496C91.4487 42.5173 91.6514 42.544 91.8434 42.576C92.558 42.6933 93.07 42.912 93.3794 43.232C93.6994 43.5413 93.934 44.0267 94.0834 44.688L94.4834 46.32C94.59 46.7893 94.6967 47.1307 94.8034 47.344C94.9207 47.5467 95.0967 47.6427 95.3314 47.632C95.5127 47.6213 95.662 47.5627 95.7794 47.456C95.9074 47.3493 96.0407 47.2053 96.1794 47.024L96.4194 47.2C96.1954 47.5307 95.9607 47.7867 95.7154 47.968C95.4807 48.1387 95.1447 48.224 94.7074 48.224C94.3127 48.224 93.966 48.1067 93.6674 47.872C93.3687 47.6373 93.1447 47.1787 92.9954 46.496L92.6434 44.896C92.5474 44.4373 92.4354 44.0427 92.3074 43.712C92.19 43.3707 92.0194 43.104 91.7954 42.912C91.582 42.72 91.262 42.624 90.8354 42.624H89.1074L89.0754 42.352ZM96.9064 36.672C97.1304 36.6827 97.4237 36.6933 97.7864 36.704C98.149 36.7147 98.5064 36.72 98.8584 36.72C99.3597 36.72 99.8397 36.7147 100.298 36.704C100.757 36.6933 101.082 36.688 101.274 36.688C102.138 36.688 102.853 36.8107 103.418 37.056C103.994 37.3013 104.421 37.6373 104.698 38.064C104.986 38.48 105.13 38.9493 105.13 39.472C105.13 39.792 105.066 40.1333 104.938 40.496C104.81 40.8587 104.586 41.2 104.266 41.52C103.957 41.84 103.53 42.1067 102.986 42.32C102.442 42.5227 101.754 42.624 100.922 42.624H99.3864V42.304H100.762C101.52 42.304 102.096 42.1867 102.49 41.952C102.896 41.7067 103.168 41.3867 103.306 40.992C103.456 40.5867 103.53 40.1387 103.53 39.648C103.53 38.8053 103.328 38.1547 102.922 37.696C102.528 37.2267 101.845 36.992 100.874 36.992C100.384 36.992 100.064 37.0827 99.9144 37.264C99.765 37.4453 99.6904 37.8133 99.6904 38.368V46.304C99.6904 46.688 99.7224 46.976 99.7864 47.168C99.8504 47.36 99.973 47.488 100.154 47.552C100.346 47.616 100.624 47.6587 100.986 47.68V48C100.741 47.9787 100.432 47.968 100.058 47.968C99.6957 47.9573 99.3277 47.952 98.9544 47.952C98.5384 47.952 98.149 47.9573 97.7864 47.968C97.4237 47.968 97.1304 47.9787 96.9064 48V47.68C97.269 47.6587 97.541 47.616 97.7224 47.552C97.9144 47.488 98.0424 47.36 98.1064 47.168C98.1704 46.976 98.2024 46.688 98.2024 46.304V38.368C98.2024 37.9733 98.1704 37.6853 98.1064 37.504C98.0424 37.312 97.9144 37.184 97.7224 37.12C97.541 37.0453 97.269 37.0027 96.9064 36.992V36.672ZM99.4504 42.352C100.026 42.3733 100.48 42.4 100.81 42.432C101.141 42.4533 101.408 42.4747 101.61 42.496C101.824 42.5173 102.026 42.544 102.218 42.576C102.933 42.6933 103.445 42.912 103.754 43.232C104.074 43.5413 104.309 44.0267 104.458 44.688L104.858 46.32C104.965 46.7893 105.072 47.1307 105.178 47.344C105.296 47.5467 105.472 47.6427 105.706 47.632C105.888 47.6213 106.037 47.5627 106.154 47.456C106.282 47.3493 106.416 47.2053 106.554 47.024L106.794 47.2C106.57 47.5307 106.336 47.7867 106.09 47.968C105.856 48.1387 105.52 48.224 105.082 48.224C104.688 48.224 104.341 48.1067 104.042 47.872C103.744 47.6373 103.52 47.1787 103.37 46.496L103.018 44.896C102.922 44.4373 102.81 44.0427 102.682 43.712C102.565 43.3707 102.394 43.104 102.17 42.912C101.957 42.72 101.637 42.624 101.21 42.624H99.4824L99.4504 42.352ZM115.265 36.672C115.223 37.0453 115.191 37.408 115.169 37.76C115.159 38.112 115.153 38.3787 115.153 38.56C115.153 38.752 115.159 38.9387 115.169 39.12C115.18 39.2907 115.191 39.4347 115.201 39.552H114.833C114.769 38.9227 114.679 38.4267 114.561 38.064C114.444 37.6907 114.241 37.4293 113.953 37.28C113.676 37.12 113.255 37.04 112.689 37.04H111.361C110.999 37.04 110.721 37.072 110.529 37.136C110.348 37.1893 110.225 37.312 110.161 37.504C110.097 37.6853 110.065 37.9733 110.065 38.368V46.304C110.065 46.688 110.097 46.976 110.161 47.168C110.225 47.36 110.348 47.488 110.529 47.552C110.721 47.6053 110.999 47.632 111.361 47.632H112.529C113.201 47.632 113.708 47.5413 114.049 47.36C114.401 47.1787 114.652 46.8853 114.801 46.48C114.961 46.064 115.079 45.504 115.153 44.8H115.521C115.489 45.088 115.473 45.472 115.473 45.952C115.473 46.1547 115.479 46.448 115.489 46.832C115.511 47.2053 115.543 47.5947 115.585 48C115.041 47.9787 114.428 47.968 113.745 47.968C113.063 47.9573 112.455 47.952 111.921 47.952C111.687 47.952 111.383 47.952 111.009 47.952C110.647 47.952 110.252 47.9573 109.825 47.968C109.399 47.968 108.967 47.9733 108.529 47.984C108.092 47.984 107.676 47.9893 107.281 48V47.68C107.644 47.6587 107.916 47.616 108.097 47.552C108.289 47.488 108.417 47.36 108.481 47.168C108.545 46.976 108.577 46.688 108.577 46.304V38.368C108.577 37.9733 108.545 37.6853 108.481 37.504C108.417 37.312 108.289 37.184 108.097 37.12C107.916 37.0453 107.644 37.0027 107.281 36.992V36.672C107.676 36.6827 108.092 36.6933 108.529 36.704C108.967 36.704 109.399 36.7093 109.825 36.72C110.252 36.72 110.647 36.72 111.009 36.72C111.383 36.72 111.687 36.72 111.921 36.72C112.412 36.72 112.967 36.72 113.585 36.72C114.215 36.7093 114.775 36.6933 115.265 36.672ZM112.513 42.144C112.513 42.144 112.513 42.1973 112.513 42.304C112.513 42.4107 112.513 42.464 112.513 42.464H109.585C109.585 42.464 109.585 42.4107 109.585 42.304C109.585 42.1973 109.585 42.144 109.585 42.144H112.513ZM112.977 40.032C112.935 40.64 112.913 41.104 112.913 41.424C112.924 41.744 112.929 42.0373 112.929 42.304C112.929 42.5707 112.935 42.864 112.945 43.184C112.956 43.504 112.983 43.968 113.025 44.576H112.657C112.615 44.2347 112.561 43.904 112.497 43.584C112.444 43.2533 112.316 42.9867 112.113 42.784C111.921 42.5707 111.591 42.464 111.121 42.464V42.144C111.473 42.144 111.74 42.0747 111.921 41.936C112.113 41.7867 112.252 41.6 112.337 41.376C112.423 41.152 112.481 40.9227 112.513 40.688C112.545 40.4427 112.577 40.224 112.609 40.032H112.977ZM121.111 36.672V36.992C120.749 37.0027 120.471 37.0453 120.279 37.12C120.098 37.184 119.975 37.312 119.911 37.504C119.847 37.6853 119.815 37.9733 119.815 38.368V46.304C119.815 46.688 119.847 46.976 119.911 47.168C119.975 47.36 120.098 47.488 120.279 47.552C120.471 47.616 120.749 47.6587 121.111 47.68V48C120.866 47.9787 120.557 47.968 120.183 47.968C119.821 47.9573 119.453 47.952 119.079 47.952C118.663 47.952 118.274 47.9573 117.911 47.968C117.549 47.968 117.255 47.9787 117.031 48V47.68C117.394 47.6587 117.666 47.616 117.847 47.552C118.039 47.488 118.167 47.36 118.231 47.168C118.295 46.976 118.327 46.688 118.327 46.304V38.368C118.327 37.9733 118.295 37.6853 118.231 37.504C118.167 37.312 118.039 37.184 117.847 37.12C117.666 37.0453 117.394 37.0027 117.031 36.992V36.672C117.255 36.6827 117.549 36.6933 117.911 36.704C118.274 36.7147 118.663 36.72 119.079 36.72C119.453 36.72 119.821 36.7147 120.183 36.704C120.557 36.6933 120.866 36.6827 121.111 36.672ZM122.453 36.672C122.677 36.6827 122.971 36.6933 123.333 36.704C123.696 36.7147 124.053 36.72 124.405 36.72C124.907 36.72 125.387 36.7147 125.845 36.704C126.304 36.6933 126.629 36.688 126.821 36.688C127.685 36.688 128.4 36.8107 128.965 37.056C129.541 37.3013 129.968 37.6373 130.245 38.064C130.533 38.48 130.677 38.9493 130.677 39.472C130.677 39.792 130.613 40.1333 130.485 40.496C130.357 40.8587 130.133 41.2 129.813 41.52C129.504 41.84 129.077 42.1067 128.533 42.32C127.989 42.5227 127.301 42.624 126.469 42.624H124.933V42.304H126.309C127.067 42.304 127.643 42.1867 128.037 41.952C128.443 41.7067 128.715 41.3867 128.853 40.992C129.003 40.5867 129.077 40.1387 129.077 39.648C129.077 38.8053 128.875 38.1547 128.469 37.696C128.075 37.2267 127.392 36.992 126.421 36.992C125.931 36.992 125.611 37.0827 125.461 37.264C125.312 37.4453 125.237 37.8133 125.237 38.368V46.304C125.237 46.688 125.269 46.976 125.333 47.168C125.397 47.36 125.52 47.488 125.701 47.552C125.893 47.616 126.171 47.6587 126.533 47.68V48C126.288 47.9787 125.979 47.968 125.605 47.968C125.243 47.9573 124.875 47.952 124.501 47.952C124.085 47.952 123.696 47.9573 123.333 47.968C122.971 47.968 122.677 47.9787 122.453 48V47.68C122.816 47.6587 123.088 47.616 123.269 47.552C123.461 47.488 123.589 47.36 123.653 47.168C123.717 46.976 123.749 46.688 123.749 46.304V38.368C123.749 37.9733 123.717 37.6853 123.653 37.504C123.589 37.312 123.461 37.184 123.269 37.12C123.088 37.0453 122.816 37.0027 122.453 36.992V36.672ZM124.997 42.352C125.573 42.3733 126.027 42.4 126.357 42.432C126.688 42.4533 126.955 42.4747 127.157 42.496C127.371 42.5173 127.573 42.544 127.765 42.576C128.48 42.6933 128.992 42.912 129.301 43.232C129.621 43.5413 129.856 44.0267 130.005 44.688L130.405 46.32C130.512 46.7893 130.619 47.1307 130.725 47.344C130.843 47.5467 131.019 47.6427 131.253 47.632C131.435 47.6213 131.584 47.5627 131.701 47.456C131.829 47.3493 131.963 47.2053 132.101 47.024L132.341 47.2C132.117 47.5307 131.883 47.7867 131.637 47.968C131.403 48.1387 131.067 48.224 130.629 48.224C130.235 48.224 129.888 48.1067 129.589 47.872C129.291 47.6373 129.067 47.1787 128.917 46.496L128.565 44.896C128.469 44.4373 128.357 44.0427 128.229 43.712C128.112 43.3707 127.941 43.104 127.717 42.912C127.504 42.72 127.184 42.624 126.757 42.624H125.029L124.997 42.352ZM137.324 36.592L141.228 46.656C141.388 47.0613 141.57 47.3333 141.772 47.472C141.975 47.6 142.162 47.6693 142.332 47.68V48C142.119 47.9787 141.858 47.968 141.548 47.968C141.239 47.9573 140.93 47.952 140.62 47.952C140.204 47.952 139.815 47.9573 139.452 47.968C139.09 47.968 138.796 47.9787 138.572 48V47.68C139.116 47.6587 139.463 47.568 139.612 47.408C139.762 47.2373 139.73 46.88 139.516 46.336L136.54 38.384L136.796 38.176L134.012 45.408C133.842 45.8347 133.74 46.1973 133.708 46.496C133.676 46.784 133.703 47.0133 133.788 47.184C133.884 47.3547 134.039 47.4773 134.252 47.552C134.476 47.6267 134.754 47.6693 135.084 47.68V48C134.786 47.9787 134.471 47.968 134.14 47.968C133.82 47.9573 133.522 47.952 133.244 47.952C132.978 47.952 132.748 47.9573 132.556 47.968C132.375 47.968 132.204 47.9787 132.044 48V47.68C132.258 47.6267 132.476 47.504 132.7 47.312C132.924 47.1093 133.127 46.768 133.308 46.288L137.068 36.592C137.111 36.592 137.154 36.592 137.196 36.592C137.239 36.592 137.282 36.592 137.324 36.592ZM139.276 43.392V43.712H134.508L134.668 43.392H139.276ZM151.131 36.768C151.536 36.768 151.872 36.816 152.139 36.912C152.405 36.9973 152.624 37.1093 152.795 37.248C152.933 37.3547 153.045 37.472 153.131 37.6C153.216 37.728 153.28 37.856 153.323 37.984C153.365 38.112 153.387 38.2347 153.387 38.352C153.387 38.6187 153.291 38.8267 153.099 38.976C152.917 39.1253 152.715 39.2 152.491 39.2C152.277 39.2 152.085 39.1307 151.915 38.992C151.744 38.8533 151.659 38.656 151.659 38.4C151.659 38.1653 151.739 37.968 151.899 37.808C152.059 37.6373 152.261 37.5413 152.507 37.52C152.464 37.3813 152.331 37.264 152.107 37.168C151.893 37.0613 151.621 37.008 151.291 37.008C150.747 37.008 150.299 37.1733 149.947 37.504C149.605 37.824 149.435 38.2933 149.435 38.912C149.435 39.2107 149.488 39.5147 149.595 39.824C149.712 40.1333 149.931 40.4373 150.251 40.736C150.432 40.704 150.619 40.6827 150.811 40.672C151.003 40.6507 151.147 40.64 151.243 40.64C151.435 40.64 151.589 40.672 151.707 40.736C151.824 40.8 151.883 40.8907 151.883 41.008C151.883 41.104 151.84 41.1787 151.755 41.232C151.68 41.2853 151.573 41.312 151.435 41.312C151.232 41.312 151.019 41.2693 150.795 41.184C150.571 41.088 150.395 41.0133 150.267 40.96C149.648 41.1413 149.147 41.44 148.763 41.856C148.379 42.2613 148.187 42.8373 148.187 43.584C148.187 44.32 148.379 44.944 148.763 45.456C149.147 45.968 149.659 46.3627 150.299 46.64C150.949 46.9067 151.675 47.04 152.475 47.04C153.04 47.04 153.573 46.976 154.075 46.848C154.587 46.7093 155.035 46.512 155.419 46.256C155.813 46 156.123 45.696 156.347 45.344C156.571 44.9813 156.683 44.5707 156.683 44.112C156.683 43.9093 156.64 43.6533 156.555 43.344C156.469 43.024 156.293 42.7147 156.027 42.416C155.76 42.1067 155.349 41.8667 154.795 41.696L154.987 41.536C155.765 41.7707 156.32 42.1493 156.651 42.672C156.981 43.184 157.147 43.76 157.147 44.4C157.147 45.04 156.955 45.6533 156.571 46.24C156.187 46.8267 155.632 47.3067 154.907 47.68C154.181 48.0427 153.301 48.224 152.267 48.224C151.573 48.224 150.912 48.1333 150.283 47.952C149.664 47.7707 149.115 47.5093 148.635 47.168C148.155 46.816 147.776 46.3947 147.499 45.904C147.221 45.4133 147.083 44.8587 147.083 44.24C147.083 43.664 147.195 43.1733 147.419 42.768C147.643 42.352 147.92 42.0107 148.251 41.744C148.581 41.4773 148.912 41.2747 149.243 41.136C149.573 40.9867 149.84 40.8853 150.043 40.832C149.691 40.672 149.392 40.4853 149.147 40.272C148.912 40.048 148.731 39.808 148.603 39.552C148.485 39.2853 148.427 39.024 148.427 38.768C148.427 38.512 148.485 38.2667 148.603 38.032C148.72 37.7867 148.891 37.568 149.115 37.376C149.339 37.184 149.616 37.0347 149.947 36.928C150.288 36.8213 150.683 36.768 151.131 36.768ZM156.955 36.448C157.616 36.448 158.171 36.64 158.619 37.024C159.067 37.3973 159.291 37.9253 159.291 38.608C159.291 38.9707 159.221 39.296 159.083 39.584C158.955 39.8613 158.773 40.1067 158.539 40.32C158.315 40.5333 158.059 40.7093 157.771 40.848C157.525 40.9653 157.2 41.0933 156.795 41.232C156.4 41.3707 155.973 41.5093 155.515 41.648C155.067 41.7867 154.635 41.9253 154.219 42.064C153.813 42.192 153.483 42.304 153.227 42.4C152.832 42.5493 152.496 42.736 152.219 42.96C151.952 43.1733 151.819 43.4507 151.819 43.792C151.819 44.0693 151.899 44.304 152.059 44.496C152.219 44.688 152.411 44.832 152.635 44.928C152.869 45.024 153.088 45.072 153.291 45.072C153.387 45.072 153.504 45.0613 153.643 45.04C153.792 45.008 153.925 44.9653 154.043 44.912C154.16 44.8587 154.229 44.7947 154.251 44.72C154.08 44.688 153.909 44.6133 153.739 44.496C153.579 44.368 153.499 44.1707 153.499 43.904C153.499 43.648 153.584 43.4453 153.755 43.296C153.925 43.1467 154.133 43.072 154.379 43.072C154.635 43.072 154.837 43.152 154.987 43.312C155.147 43.472 155.227 43.68 155.227 43.936C155.227 44.2347 155.125 44.4907 154.923 44.704C154.731 44.9067 154.485 45.0613 154.187 45.168C153.899 45.264 153.611 45.312 153.323 45.312C153.024 45.312 152.72 45.248 152.411 45.12C152.101 44.992 151.845 44.7947 151.643 44.528C151.44 44.2507 151.339 43.888 151.339 43.44C151.339 43.0667 151.419 42.736 151.579 42.448C151.749 42.16 152 41.904 152.331 41.68C152.661 41.456 153.067 41.264 153.547 41.104C153.867 40.9973 154.256 40.88 154.715 40.752C155.173 40.624 155.643 40.4853 156.123 40.336C156.613 40.1867 157.056 40.0213 157.451 39.84C157.984 39.5947 158.347 39.344 158.539 39.088C158.731 38.832 158.827 38.5707 158.827 38.304C158.827 37.9947 158.741 37.7227 158.571 37.488C158.4 37.2427 158.171 37.0507 157.883 36.912C157.605 36.7627 157.301 36.688 156.971 36.688C156.843 36.688 156.736 36.6987 156.651 36.72C156.565 36.7413 156.512 36.7787 156.491 36.832C156.64 36.9067 156.752 37.0133 156.827 37.152C156.901 37.2907 156.939 37.4293 156.939 37.568C156.939 37.792 156.848 37.9787 156.667 38.128C156.496 38.2773 156.288 38.352 156.043 38.352C155.84 38.352 155.648 38.288 155.467 38.16C155.285 38.0213 155.195 37.8187 155.195 37.552C155.195 37.2747 155.285 37.056 155.467 36.896C155.659 36.736 155.888 36.624 156.155 36.56C156.432 36.4853 156.699 36.448 156.955 36.448ZM168.215 36.592L172.119 46.656C172.279 47.0613 172.46 47.3333 172.663 47.472C172.866 47.6 173.052 47.6693 173.223 47.68V48C173.01 47.9787 172.748 47.968 172.439 47.968C172.13 47.9573 171.82 47.952 171.511 47.952C171.095 47.952 170.706 47.9573 170.343 47.968C169.98 47.968 169.687 47.9787 169.463 48V47.68C170.007 47.6587 170.354 47.568 170.503 47.408C170.652 47.2373 170.62 46.88 170.407 46.336L167.431 38.384L167.687 38.176L164.903 45.408C164.732 45.8347 164.631 46.1973 164.599 46.496C164.567 46.784 164.594 47.0133 164.679 47.184C164.775 47.3547 164.93 47.4773 165.143 47.552C165.367 47.6267 165.644 47.6693 165.975 47.68V48C165.676 47.9787 165.362 47.968 165.031 47.968C164.711 47.9573 164.412 47.952 164.135 47.952C163.868 47.952 163.639 47.9573 163.447 47.968C163.266 47.968 163.095 47.9787 162.935 48V47.68C163.148 47.6267 163.367 47.504 163.591 47.312C163.815 47.1093 164.018 46.768 164.199 46.288L167.959 36.592C168.002 36.592 168.044 36.592 168.087 36.592C168.13 36.592 168.172 36.592 168.215 36.592ZM170.167 43.392V43.712H165.399L165.559 43.392H170.167ZM177.565 36.672V36.992C177.202 37.0027 176.925 37.0453 176.733 37.12C176.551 37.184 176.429 37.312 176.365 37.504C176.301 37.6853 176.269 37.9733 176.269 38.368V46.304C176.269 46.688 176.301 46.976 176.365 47.168C176.429 47.36 176.551 47.488 176.733 47.552C176.925 47.6053 177.202 47.632 177.565 47.632H178.733C179.234 47.632 179.639 47.5787 179.949 47.472C180.269 47.3653 180.519 47.2 180.701 46.976C180.893 46.7413 181.037 46.432 181.133 46.048C181.229 45.664 181.303 45.1947 181.357 44.64H181.725C181.693 44.9707 181.677 45.408 181.677 45.952C181.677 46.1547 181.682 46.448 181.693 46.832C181.714 47.2053 181.746 47.5947 181.789 48C181.245 47.9787 180.631 47.968 179.949 47.968C179.266 47.9573 178.658 47.952 178.125 47.952C177.89 47.952 177.586 47.952 177.213 47.952C176.85 47.952 176.455 47.9573 176.029 47.968C175.602 47.968 175.17 47.9733 174.733 47.984C174.295 47.984 173.879 47.9893 173.485 48V47.68C173.847 47.6587 174.119 47.616 174.301 47.552C174.493 47.488 174.621 47.36 174.685 47.168C174.749 46.976 174.781 46.688 174.781 46.304V38.368C174.781 37.9733 174.749 37.6853 174.685 37.504C174.621 37.312 174.493 37.184 174.301 37.12C174.119 37.0453 173.847 37.0027 173.485 36.992V36.672C173.709 36.6827 174.002 36.6933 174.365 36.704C174.727 36.7147 175.117 36.72 175.533 36.72C175.906 36.72 176.274 36.7147 176.637 36.704C177.01 36.6933 177.319 36.6827 177.565 36.672ZM195.483 36.672V36.992C195.12 37.0027 194.843 37.0453 194.651 37.12C194.469 37.184 194.347 37.312 194.283 37.504C194.219 37.6853 194.187 37.9733 194.187 38.368V46.304C194.187 46.688 194.219 46.976 194.283 47.168C194.347 47.36 194.469 47.488 194.651 47.552C194.843 47.616 195.12 47.6587 195.483 47.68V48C195.237 47.9787 194.928 47.968 194.555 47.968C194.192 47.9573 193.824 47.952 193.451 47.952C193.035 47.952 192.645 47.9573 192.283 47.968C191.92 47.968 191.627 47.9787 191.403 48V47.68C191.765 47.6587 192.037 47.616 192.219 47.552C192.411 47.488 192.539 47.36 192.603 47.168C192.667 46.976 192.699 46.688 192.699 46.304V37.504L192.763 37.552L188.843 48.08H188.587L184.555 37.696V46.144C184.555 46.528 184.587 46.832 184.651 47.056C184.725 47.2693 184.864 47.424 185.067 47.52C185.28 47.6053 185.595 47.6587 186.011 47.68V48C185.819 47.9787 185.568 47.968 185.259 47.968C184.949 47.9573 184.656 47.952 184.379 47.952C184.112 47.952 183.84 47.9573 183.563 47.968C183.296 47.968 183.072 47.9787 182.891 48V47.68C183.253 47.6587 183.525 47.6053 183.707 47.52C183.899 47.424 184.027 47.2693 184.091 47.056C184.155 46.832 184.187 46.528 184.187 46.144V38.368C184.187 37.9733 184.155 37.6853 184.091 37.504C184.027 37.312 183.899 37.184 183.707 37.12C183.525 37.0453 183.253 37.0027 182.891 36.992V36.672C183.072 36.6827 183.296 36.6933 183.563 36.704C183.84 36.7147 184.112 36.72 184.379 36.72C184.613 36.72 184.853 36.7147 185.099 36.704C185.355 36.6933 185.568 36.6827 185.739 36.672L189.371 46.24L189.099 46.368L192.699 36.72C192.827 36.72 192.949 36.72 193.067 36.72C193.195 36.72 193.323 36.72 193.451 36.72C193.824 36.72 194.192 36.7147 194.555 36.704C194.928 36.6933 195.237 36.6827 195.483 36.672ZM204.812 36.672C204.77 37.0453 204.738 37.408 204.716 37.76C204.706 38.112 204.7 38.3787 204.7 38.56C204.7 38.752 204.706 38.9387 204.716 39.12C204.727 39.2907 204.738 39.4347 204.748 39.552H204.38C204.316 38.9227 204.226 38.4267 204.108 38.064C203.991 37.6907 203.788 37.4293 203.5 37.28C203.223 37.12 202.802 37.04 202.236 37.04H200.908C200.546 37.04 200.268 37.072 200.076 37.136C199.895 37.1893 199.772 37.312 199.708 37.504C199.644 37.6853 199.612 37.9733 199.612 38.368V46.304C199.612 46.688 199.644 46.976 199.708 47.168C199.772 47.36 199.895 47.488 200.076 47.552C200.268 47.6053 200.546 47.632 200.908 47.632H202.076C202.748 47.632 203.255 47.5413 203.596 47.36C203.948 47.1787 204.199 46.8853 204.348 46.48C204.508 46.064 204.626 45.504 204.7 44.8H205.068C205.036 45.088 205.02 45.472 205.02 45.952C205.02 46.1547 205.026 46.448 205.036 46.832C205.058 47.2053 205.09 47.5947 205.132 48C204.588 47.9787 203.975 47.968 203.292 47.968C202.61 47.9573 202.002 47.952 201.468 47.952C201.234 47.952 200.93 47.952 200.556 47.952C200.194 47.952 199.799 47.9573 199.372 47.968C198.946 47.968 198.514 47.9733 198.076 47.984C197.639 47.984 197.223 47.9893 196.828 48V47.68C197.191 47.6587 197.463 47.616 197.644 47.552C197.836 47.488 197.964 47.36 198.028 47.168C198.092 46.976 198.124 46.688 198.124 46.304V38.368C198.124 37.9733 198.092 37.6853 198.028 37.504C197.964 37.312 197.836 37.184 197.644 37.12C197.463 37.0453 197.191 37.0027 196.828 36.992V36.672C197.223 36.6827 197.639 36.6933 198.076 36.704C198.514 36.704 198.946 36.7093 199.372 36.72C199.799 36.72 200.194 36.72 200.556 36.72C200.93 36.72 201.234 36.72 201.468 36.72C201.959 36.72 202.514 36.72 203.132 36.72C203.762 36.7093 204.322 36.6933 204.812 36.672ZM202.06 42.144C202.06 42.144 202.06 42.1973 202.06 42.304C202.06 42.4107 202.06 42.464 202.06 42.464H199.132C199.132 42.464 199.132 42.4107 199.132 42.304C199.132 42.1973 199.132 42.144 199.132 42.144H202.06ZM202.524 40.032C202.482 40.64 202.46 41.104 202.46 41.424C202.471 41.744 202.476 42.0373 202.476 42.304C202.476 42.5707 202.482 42.864 202.492 43.184C202.503 43.504 202.53 43.968 202.572 44.576H202.204C202.162 44.2347 202.108 43.904 202.044 43.584C201.991 43.2533 201.863 42.9867 201.66 42.784C201.468 42.5707 201.138 42.464 200.668 42.464V42.144C201.02 42.144 201.287 42.0747 201.468 41.936C201.66 41.7867 201.799 41.6 201.884 41.376C201.97 41.152 202.028 40.9227 202.06 40.688C202.092 40.4427 202.124 40.224 202.156 40.032H202.524ZM210.658 36.672V36.992C210.296 37.0027 210.018 37.0453 209.826 37.12C209.645 37.184 209.522 37.312 209.458 37.504C209.394 37.6853 209.362 37.9733 209.362 38.368V46.304C209.362 46.688 209.394 46.976 209.458 47.168C209.522 47.36 209.645 47.488 209.826 47.552C210.018 47.616 210.296 47.6587 210.658 47.68V48C210.413 47.9787 210.104 47.968 209.73 47.968C209.368 47.9573 209 47.952 208.626 47.952C208.21 47.952 207.821 47.9573 207.458 47.968C207.096 47.968 206.802 47.9787 206.578 48V47.68C206.941 47.6587 207.213 47.616 207.394 47.552C207.586 47.488 207.714 47.36 207.778 47.168C207.842 46.976 207.874 46.688 207.874 46.304V38.368C207.874 37.9733 207.842 37.6853 207.778 37.504C207.714 37.312 207.586 37.184 207.394 37.12C207.213 37.0453 206.941 37.0027 206.578 36.992V36.672C206.802 36.6827 207.096 36.6933 207.458 36.704C207.821 36.7147 208.21 36.72 208.626 36.72C209 36.72 209.368 36.7147 209.73 36.704C210.104 36.6933 210.413 36.6827 210.658 36.672ZM216.368 36.672C218.277 36.672 219.696 37.152 220.624 38.112C221.552 39.0613 222.016 40.4267 222.016 42.208C222.016 43.3707 221.787 44.3893 221.328 45.264C220.88 46.128 220.224 46.8 219.36 47.28C218.496 47.76 217.451 48 216.224 48C216.064 48 215.851 47.9947 215.584 47.984C215.317 47.9733 215.04 47.968 214.752 47.968C214.475 47.9573 214.219 47.952 213.984 47.952C213.611 47.952 213.243 47.9573 212.88 47.968C212.517 47.968 212.224 47.9787 212 48V47.68C212.363 47.6587 212.635 47.616 212.816 47.552C213.008 47.488 213.136 47.36 213.2 47.168C213.264 46.976 213.296 46.688 213.296 46.304V38.368C213.296 37.9733 213.264 37.6853 213.2 37.504C213.136 37.312 213.008 37.184 212.816 37.12C212.635 37.0453 212.363 37.0027 212 36.992V36.672C212.224 36.6827 212.517 36.6987 212.88 36.72C213.243 36.7307 213.6 36.7307 213.952 36.72C214.325 36.7093 214.747 36.6987 215.216 36.688C215.685 36.6773 216.069 36.672 216.368 36.672ZM215.968 36.96C215.477 36.96 215.157 37.0507 215.008 37.232C214.859 37.4133 214.784 37.7813 214.784 38.336V46.336C214.784 46.8907 214.859 47.2587 215.008 47.44C215.168 47.6213 215.493 47.712 215.984 47.712C217.147 47.712 218.048 47.504 218.688 47.088C219.328 46.6613 219.776 46.0427 220.032 45.232C220.288 44.4213 220.416 43.4347 220.416 42.272C220.416 41.0773 220.272 40.0907 219.984 39.312C219.707 38.5227 219.243 37.936 218.592 37.552C217.952 37.1573 217.077 36.96 215.968 36.96ZM227.715 36.592L231.619 46.656C231.779 47.0613 231.96 47.3333 232.163 47.472C232.366 47.6 232.552 47.6693 232.723 47.68V48C232.51 47.9787 232.248 47.968 231.939 47.968C231.63 47.9573 231.32 47.952 231.011 47.952C230.595 47.952 230.206 47.9573 229.843 47.968C229.48 47.968 229.187 47.9787 228.963 48V47.68C229.507 47.6587 229.854 47.568 230.003 47.408C230.152 47.2373 230.12 46.88 229.907 46.336L226.931 38.384L227.187 38.176L224.403 45.408C224.232 45.8347 224.131 46.1973 224.099 46.496C224.067 46.784 224.094 47.0133 224.179 47.184C224.275 47.3547 224.43 47.4773 224.643 47.552C224.867 47.6267 225.144 47.6693 225.475 47.68V48C225.176 47.9787 224.862 47.968 224.531 47.968C224.211 47.9573 223.912 47.952 223.635 47.952C223.368 47.952 223.139 47.9573 222.947 47.968C222.766 47.968 222.595 47.9787 222.435 48V47.68C222.648 47.6267 222.867 47.504 223.091 47.312C223.315 47.1093 223.518 46.768 223.699 46.288L227.459 36.592C227.502 36.592 227.544 36.592 227.587 36.592C227.63 36.592 227.672 36.592 227.715 36.592ZM229.667 43.392V43.712H224.899L225.059 43.392H229.667Z" fill="white"/>
<path d="M78.07 64.06C77.55 64.06 77.05 63.9767 76.57 63.81C76.0967 63.6367 75.73 63.4167 75.47 63.15L75.76 62.58C76.0067 62.82 76.3367 63.0233 76.75 63.19C77.17 63.35 77.61 63.43 78.07 63.43C78.51 63.43 78.8667 63.3767 79.14 63.27C79.42 63.1567 79.6233 63.0067 79.75 62.82C79.8833 62.6333 79.95 62.4267 79.95 62.2C79.95 61.9267 79.87 61.7067 79.71 61.54C79.5567 61.3733 79.3533 61.2433 79.1 61.15C78.8467 61.05 78.5667 60.9633 78.26 60.89C77.9533 60.8167 77.6467 60.74 77.34 60.66C77.0333 60.5733 76.75 60.46 76.49 60.32C76.2367 60.18 76.03 59.9967 75.87 59.77C75.7167 59.5367 75.64 59.2333 75.64 58.86C75.64 58.5133 75.73 58.1967 75.91 57.91C76.0967 57.6167 76.38 57.3833 76.76 57.21C77.14 57.03 77.6267 56.94 78.22 56.94C78.6133 56.94 79.0033 56.9967 79.39 57.11C79.7767 57.2167 80.11 57.3667 80.39 57.56L80.14 58.15C79.84 57.95 79.52 57.8033 79.18 57.71C78.8467 57.6167 78.5233 57.57 78.21 57.57C77.79 57.57 77.4433 57.6267 77.17 57.74C76.8967 57.8533 76.6933 58.0067 76.56 58.2C76.4333 58.3867 76.37 58.6 76.37 58.84C76.37 59.1133 76.4467 59.3333 76.6 59.5C76.76 59.6667 76.9667 59.7967 77.22 59.89C77.48 59.9833 77.7633 60.0667 78.07 60.14C78.3767 60.2133 78.68 60.2933 78.98 60.38C79.2867 60.4667 79.5667 60.58 79.82 60.72C80.08 60.8533 80.2867 61.0333 80.44 61.26C80.6 61.4867 80.68 61.7833 80.68 62.15C80.68 62.49 80.5867 62.8067 80.4 63.1C80.2133 63.3867 79.9267 63.62 79.54 63.8C79.16 63.9733 78.67 64.06 78.07 64.06ZM85.3523 64.06C84.8257 64.06 84.3357 63.9733 83.8823 63.8C83.4357 63.62 83.0457 63.37 82.7123 63.05C82.3857 62.7233 82.129 62.3467 81.9423 61.92C81.7623 61.4867 81.6723 61.0133 81.6723 60.5C81.6723 59.9867 81.7623 59.5167 81.9423 59.09C82.129 58.6567 82.3857 58.28 82.7123 57.96C83.0457 57.6333 83.4357 57.3833 83.8823 57.21C84.329 57.03 84.819 56.94 85.3523 56.94C85.879 56.94 86.3657 57.03 86.8123 57.21C87.259 57.3833 87.6457 57.63 87.9723 57.95C88.3057 58.27 88.5623 58.6467 88.7423 59.08C88.929 59.5133 89.0223 59.9867 89.0223 60.5C89.0223 61.0133 88.929 61.4867 88.7423 61.92C88.5623 62.3533 88.3057 62.73 87.9723 63.05C87.6457 63.37 87.259 63.62 86.8123 63.8C86.3657 63.9733 85.879 64.06 85.3523 64.06ZM85.3523 63.4C85.7723 63.4 86.159 63.33 86.5123 63.19C86.8723 63.0433 87.1823 62.84 87.4423 62.58C87.709 62.3133 87.9157 62.0067 88.0623 61.66C88.209 61.3067 88.2823 60.92 88.2823 60.5C88.2823 60.08 88.209 59.6967 88.0623 59.35C87.9157 58.9967 87.709 58.69 87.4423 58.43C87.1823 58.1633 86.8723 57.96 86.5123 57.82C86.159 57.6733 85.7723 57.6 85.3523 57.6C84.9323 57.6 84.5423 57.6733 84.1823 57.82C83.8223 57.96 83.509 58.1633 83.2423 58.43C82.9823 58.69 82.7757 58.9967 82.6223 59.35C82.4757 59.6967 82.4023 60.08 82.4023 60.5C82.4023 60.9133 82.4757 61.2967 82.6223 61.65C82.7757 62.0033 82.9823 62.3133 83.2423 62.58C83.509 62.84 83.8223 63.0433 84.1823 63.19C84.5423 63.33 84.9323 63.4 85.3523 63.4ZM93.721 64.06C93.1943 64.06 92.7077 63.9733 92.261 63.8C91.8143 63.62 91.4277 63.37 91.101 63.05C90.7743 62.73 90.5177 62.3533 90.331 61.92C90.151 61.4867 90.061 61.0133 90.061 60.5C90.061 59.9867 90.151 59.5133 90.331 59.08C90.5177 58.6467 90.7743 58.27 91.101 57.95C91.4343 57.63 91.8243 57.3833 92.271 57.21C92.7177 57.03 93.2043 56.94 93.731 56.94C94.2377 56.94 94.7143 57.0267 95.161 57.2C95.6077 57.3667 95.9843 57.62 96.291 57.96L95.821 58.43C95.5343 58.1367 95.2177 57.9267 94.871 57.8C94.5243 57.6667 94.151 57.6 93.751 57.6C93.331 57.6 92.941 57.6733 92.581 57.82C92.221 57.96 91.9077 58.1633 91.641 58.43C91.3743 58.69 91.1643 58.9967 91.011 59.35C90.8643 59.6967 90.791 60.08 90.791 60.5C90.791 60.92 90.8643 61.3067 91.011 61.66C91.1643 62.0067 91.3743 62.3133 91.641 62.58C91.9077 62.84 92.221 63.0433 92.581 63.19C92.941 63.33 93.331 63.4 93.751 63.4C94.151 63.4 94.5243 63.3333 94.871 63.2C95.2177 63.0667 95.5343 62.8533 95.821 62.56L96.291 63.03C95.9843 63.37 95.6077 63.6267 95.161 63.8C94.7143 63.9733 94.2343 64.06 93.721 64.06ZM97.7709 64V57H98.5109V64H97.7709ZM100.788 64V57H105.588V57.64H101.528V63.36H105.738V64H100.788ZM101.448 60.76V60.13H105.148V60.76H101.448ZM107.478 64V57H110.328C111.075 57 111.728 57.15 112.288 57.45C112.855 57.7433 113.295 58.1533 113.608 58.68C113.921 59.2067 114.078 59.8133 114.078 60.5C114.078 61.1867 113.921 61.7933 113.608 62.32C113.295 62.8467 112.855 63.26 112.288 63.56C111.728 63.8533 111.075 64 110.328 64H107.478ZM108.218 63.36H110.288C110.908 63.36 111.445 63.24 111.898 63C112.358 62.7533 112.715 62.4167 112.968 61.99C113.221 61.5567 113.348 61.06 113.348 60.5C113.348 59.9333 113.221 59.4367 112.968 59.01C112.715 58.5833 112.358 58.25 111.898 58.01C111.445 57.7633 110.908 57.64 110.288 57.64H108.218V63.36ZM114.522 64L117.722 57H118.452L121.652 64H120.872L117.932 57.43H118.232L115.292 64H114.522ZM115.782 62.13L116.002 61.53H120.072L120.292 62.13H115.782ZM122.81 64V57H125.66C126.407 57 127.06 57.15 127.62 57.45C128.187 57.7433 128.627 58.1533 128.94 58.68C129.253 59.2067 129.41 59.8133 129.41 60.5C129.41 61.1867 129.253 61.7933 128.94 62.32C128.627 62.8467 128.187 63.26 127.62 63.56C127.06 63.8533 126.407 64 125.66 64H122.81ZM123.55 63.36H125.62C126.24 63.36 126.777 63.24 127.23 63C127.69 62.7533 128.047 62.4167 128.3 61.99C128.553 61.5567 128.68 61.06 128.68 60.5C128.68 59.9333 128.553 59.4367 128.3 59.01C128.047 58.5833 127.69 58.25 127.23 58.01C126.777 57.7633 126.24 57.64 125.62 57.64H123.55V63.36ZM131.072 64V57H135.872V57.64H131.812V63.36H136.022V64H131.072ZM131.732 60.76V60.13H135.432V60.76H131.732ZM140.378 64V57H143.228C143.975 57 144.628 57.15 145.188 57.45C145.755 57.7433 146.195 58.1533 146.508 58.68C146.822 59.2067 146.978 59.8133 146.978 60.5C146.978 61.1867 146.822 61.7933 146.508 62.32C146.195 62.8467 145.755 63.26 145.188 63.56C144.628 63.8533 143.975 64 143.228 64H140.378ZM141.118 63.36H143.188C143.808 63.36 144.345 63.24 144.798 63C145.258 62.7533 145.615 62.4167 145.868 61.99C146.122 61.5567 146.248 61.06 146.248 60.5C146.248 59.9333 146.122 59.4367 145.868 59.01C145.615 58.5833 145.258 58.25 144.798 58.01C144.345 57.7633 143.808 57.64 143.188 57.64H141.118V63.36ZM148.64 64V57H153.44V57.64H149.38V63.36H153.59V64H148.64ZM149.3 60.76V60.13H153V60.76H149.3ZM156.827 64L160.027 57H160.757L163.957 64H163.177L160.237 57.43H160.537L157.597 64H156.827ZM158.087 62.13L158.307 61.53H162.377L162.597 62.13H158.087ZM165.115 64V57H167.965C168.711 57 169.365 57.15 169.925 57.45C170.491 57.7433 170.931 58.1533 171.245 58.68C171.558 59.2067 171.715 59.8133 171.715 60.5C171.715 61.1867 171.558 61.7933 171.245 62.32C170.931 62.8467 170.491 63.26 169.925 63.56C169.365 63.8533 168.711 64 167.965 64H165.115ZM165.855 63.36H167.925C168.545 63.36 169.081 63.24 169.535 63C169.995 62.7533 170.351 62.4167 170.605 61.99C170.858 61.5567 170.985 61.06 170.985 60.5C170.985 59.9333 170.858 59.4367 170.605 59.01C170.351 58.5833 169.995 58.25 169.535 58.01C169.081 57.7633 168.545 57.64 167.925 57.64H165.855V63.36ZM175.161 64L172.061 57H172.861L175.761 63.59H175.321L178.241 57H178.991L175.891 64H175.161ZM183.009 64.06C182.482 64.06 181.992 63.9733 181.539 63.8C181.092 63.62 180.702 63.37 180.369 63.05C180.042 62.7233 179.785 62.3467 179.599 61.92C179.419 61.4867 179.329 61.0133 179.329 60.5C179.329 59.9867 179.419 59.5167 179.599 59.09C179.785 58.6567 180.042 58.28 180.369 57.96C180.702 57.6333 181.092 57.3833 181.539 57.21C181.985 57.03 182.475 56.94 183.009 56.94C183.535 56.94 184.022 57.03 184.469 57.21C184.915 57.3833 185.302 57.63 185.629 57.95C185.962 58.27 186.219 58.6467 186.399 59.08C186.585 59.5133 186.679 59.9867 186.679 60.5C186.679 61.0133 186.585 61.4867 186.399 61.92C186.219 62.3533 185.962 62.73 185.629 63.05C185.302 63.37 184.915 63.62 184.469 63.8C184.022 63.9733 183.535 64.06 183.009 64.06ZM183.009 63.4C183.429 63.4 183.815 63.33 184.169 63.19C184.529 63.0433 184.839 62.84 185.099 62.58C185.365 62.3133 185.572 62.0067 185.719 61.66C185.865 61.3067 185.939 60.92 185.939 60.5C185.939 60.08 185.865 59.6967 185.719 59.35C185.572 58.9967 185.365 58.69 185.099 58.43C184.839 58.1633 184.529 57.96 184.169 57.82C183.815 57.6733 183.429 57.6 183.009 57.6C182.589 57.6 182.199 57.6733 181.839 57.82C181.479 57.96 181.165 58.1633 180.899 58.43C180.639 58.69 180.432 58.9967 180.279 59.35C180.132 59.6967 180.059 60.08 180.059 60.5C180.059 60.9133 180.132 61.2967 180.279 61.65C180.432 62.0033 180.639 62.3133 180.899 62.58C181.165 62.84 181.479 63.0433 181.839 63.19C182.199 63.33 182.589 63.4 183.009 63.4ZM191.407 64.06C190.874 64.06 190.381 63.9733 189.927 63.8C189.481 63.62 189.091 63.37 188.757 63.05C188.431 62.73 188.174 62.3533 187.987 61.92C187.807 61.4867 187.717 61.0133 187.717 60.5C187.717 59.9867 187.807 59.5133 187.987 59.08C188.174 58.6467 188.434 58.27 188.767 57.95C189.101 57.63 189.491 57.3833 189.937 57.21C190.391 57.03 190.884 56.94 191.417 56.94C191.951 56.94 192.437 57.0233 192.877 57.19C193.324 57.3567 193.704 57.61 194.017 57.95L193.557 58.42C193.264 58.1267 192.941 57.9167 192.587 57.79C192.234 57.6633 191.854 57.6 191.447 57.6C191.014 57.6 190.614 57.6733 190.247 57.82C189.887 57.96 189.571 58.1633 189.297 58.43C189.031 58.69 188.821 58.9967 188.667 59.35C188.521 59.6967 188.447 60.08 188.447 60.5C188.447 60.9133 188.521 61.2967 188.667 61.65C188.821 62.0033 189.031 62.3133 189.297 62.58C189.571 62.84 189.887 63.0433 190.247 63.19C190.614 63.33 191.011 63.4 191.437 63.4C191.837 63.4 192.214 63.34 192.567 63.22C192.927 63.1 193.257 62.8967 193.557 62.61L193.977 63.17C193.644 63.4633 193.254 63.6867 192.807 63.84C192.361 63.9867 191.894 64.06 191.407 64.06ZM193.977 63.17L193.267 63.08V60.5H193.977V63.17ZM194.952 64L198.152 57H198.882L202.082 64H201.302L198.362 57.43H198.662L195.722 64H194.952ZM196.212 62.13L196.432 61.53H200.502L200.722 62.13H196.212ZM203.24 64V57H206.09C206.836 57 207.49 57.15 208.05 57.45C208.616 57.7433 209.056 58.1533 209.37 58.68C209.683 59.2067 209.84 59.8133 209.84 60.5C209.84 61.1867 209.683 61.7933 209.37 62.32C209.056 62.8467 208.616 63.26 208.05 63.56C207.49 63.8533 206.836 64 206.09 64H203.24ZM203.98 63.36H206.05C206.67 63.36 207.206 63.24 207.66 63C208.12 62.7533 208.476 62.4167 208.73 61.99C208.983 61.5567 209.11 61.06 209.11 60.5C209.11 59.9333 208.983 59.4367 208.73 59.01C208.476 58.5833 208.12 58.25 207.66 58.01C207.206 57.7633 206.67 57.64 206.05 57.64H203.98V63.36ZM214.561 64.06C214.035 64.06 213.545 63.9733 213.091 63.8C212.645 63.62 212.255 63.37 211.921 63.05C211.595 62.7233 211.338 62.3467 211.151 61.92C210.971 61.4867 210.881 61.0133 210.881 60.5C210.881 59.9867 210.971 59.5167 211.151 59.09C211.338 58.6567 211.595 58.28 211.921 57.96C212.255 57.6333 212.645 57.3833 213.091 57.21C213.538 57.03 214.028 56.94 214.561 56.94C215.088 56.94 215.575 57.03 216.021 57.21C216.468 57.3833 216.855 57.63 217.181 57.95C217.515 58.27 217.771 58.6467 217.951 59.08C218.138 59.5133 218.231 59.9867 218.231 60.5C218.231 61.0133 218.138 61.4867 217.951 61.92C217.771 62.3533 217.515 62.73 217.181 63.05C216.855 63.37 216.468 63.62 216.021 63.8C215.575 63.9733 215.088 64.06 214.561 64.06ZM214.561 63.4C214.981 63.4 215.368 63.33 215.721 63.19C216.081 63.0433 216.391 62.84 216.651 62.58C216.918 62.3133 217.125 62.0067 217.271 61.66C217.418 61.3067 217.491 60.92 217.491 60.5C217.491 60.08 217.418 59.6967 217.271 59.35C217.125 58.9967 216.918 58.69 216.651 58.43C216.391 58.1633 216.081 57.96 215.721 57.82C215.368 57.6733 214.981 57.6 214.561 57.6C214.141 57.6 213.751 57.6733 213.391 57.82C213.031 57.96 212.718 58.1633 212.451 58.43C212.191 58.69 211.985 58.9967 211.831 59.35C211.685 59.6967 211.611 60.08 211.611 60.5C211.611 60.9133 211.685 61.2967 211.831 61.65C211.985 62.0033 212.191 62.3133 212.451 62.58C212.718 62.84 213.031 63.0433 213.391 63.19C213.751 63.33 214.141 63.4 214.561 63.4ZM221.82 64.06C221.3 64.06 220.8 63.9767 220.32 63.81C219.847 63.6367 219.48 63.4167 219.22 63.15L219.51 62.58C219.757 62.82 220.087 63.0233 220.5 63.19C220.92 63.35 221.36 63.43 221.82 63.43C222.26 63.43 222.617 63.3767 222.89 63.27C223.17 63.1567 223.373 63.0067 223.5 62.82C223.633 62.6333 223.7 62.4267 223.7 62.2C223.7 61.9267 223.62 61.7067 223.46 61.54C223.307 61.3733 223.103 61.2433 222.85 61.15C222.597 61.05 222.317 60.9633 222.01 60.89C221.703 60.8167 221.397 60.74 221.09 60.66C220.783 60.5733 220.5 60.46 220.24 60.32C219.987 60.18 219.78 59.9967 219.62 59.77C219.467 59.5367 219.39 59.2333 219.39 58.86C219.39 58.5133 219.48 58.1967 219.66 57.91C219.847 57.6167 220.13 57.3833 220.51 57.21C220.89 57.03 221.377 56.94 221.97 56.94C222.363 56.94 222.753 56.9967 223.14 57.11C223.527 57.2167 223.86 57.3667 224.14 57.56L223.89 58.15C223.59 57.95 223.27 57.8033 222.93 57.71C222.597 57.6167 222.273 57.57 221.96 57.57C221.54 57.57 221.193 57.6267 220.92 57.74C220.647 57.8533 220.443 58.0067 220.31 58.2C220.183 58.3867 220.12 58.6 220.12 58.84C220.12 59.1133 220.197 59.3333 220.35 59.5C220.51 59.6667 220.717 59.7967 220.97 59.89C221.23 59.9833 221.513 60.0667 221.82 60.14C222.127 60.2133 222.43 60.2933 222.73 60.38C223.037 60.4667 223.317 60.58 223.57 60.72C223.83 60.8533 224.037 61.0333 224.19 61.26C224.35 61.4867 224.43 61.7833 224.43 62.15C224.43 62.49 224.337 62.8067 224.15 63.1C223.963 63.3867 223.677 63.62 223.29 63.8C222.91 63.9733 222.42 64.06 221.82 64.06Z" fill="white"/>
<path d="M34.624 20.688C34.4533 22.3093 34.3253 23.888 34.24 25.424C34.1973 26.9173 34.176 28.0693 34.176 28.88C34.176 29.904 34.1973 30.864 34.24 31.76C34.2827 32.656 34.3253 33.4453 34.368 34.128H32.896C32.5973 31.1413 32.192 28.7947 31.68 27.088C31.168 25.3387 30.272 24.08 28.992 23.312C27.712 22.544 25.728 22.16 23.04 22.16H19.008C17.5573 22.16 16.448 22.288 15.68 22.544C14.9547 22.7573 14.464 23.248 14.208 24.016C13.952 24.7413 13.824 25.8933 13.824 27.472V59.216C13.824 60.752 13.9733 61.904 14.272 62.672C14.6133 63.44 15.2533 63.952 16.192 64.208C17.1307 64.464 18.496 64.6347 20.288 64.72V66C19.1787 65.9147 17.7707 65.872 16.064 65.872C14.3573 65.8293 12.6293 65.808 10.88 65.808C9.216 65.808 7.65867 65.8293 6.208 65.872C4.75733 65.872 3.584 65.9147 2.688 66V64.72C4.13867 64.6347 5.22667 64.464 5.952 64.208C6.72 63.952 7.232 63.44 7.488 62.672C7.744 61.904 7.872 60.752 7.872 59.216V27.472C7.872 25.8933 7.744 24.7413 7.488 24.016C7.232 23.248 6.72 22.736 5.952 22.48C5.22667 22.1813 4.13867 22.0107 2.688 21.968V20.688C4.26667 20.7307 5.93067 20.7733 7.68 20.816C9.42933 20.816 11.1573 20.8373 12.864 20.88C14.5707 20.88 16.1493 20.88 17.6 20.88C19.0933 20.88 20.3093 20.88 21.248 20.88C23.2107 20.88 25.4293 20.88 27.904 20.88C30.4213 20.8373 32.6613 20.7733 34.624 20.688ZM24.704 43.216C24.704 43.216 24.704 43.4293 24.704 43.856C24.704 44.2827 24.704 44.496 24.704 44.496H11.904C11.904 44.496 11.904 44.2827 11.904 43.856C11.904 43.4293 11.904 43.216 11.904 43.216H24.704ZM25.92 34.768C25.7493 37.2 25.664 39.056 25.664 40.336C25.7067 41.616 25.728 42.7893 25.728 43.856C25.728 44.9227 25.7493 46.096 25.792 47.376C25.8347 48.656 25.9413 50.512 26.112 52.944H24.64C24.4693 51.5787 24.256 50.256 24 48.976C23.7867 47.6533 23.2747 46.5867 22.464 45.776C21.696 44.9227 20.3733 44.496 18.496 44.496V43.216C19.904 43.216 20.9707 42.9387 21.696 42.384C22.464 41.7867 23.0187 41.04 23.36 40.144C23.7013 39.248 23.936 38.3307 24.064 37.392C24.192 36.4107 24.32 35.536 24.448 34.768H25.92Z" fill="#B88D51"/>
<path d="M39.672 26.368L55.288 66.624C55.928 68.2453 56.6533 69.3333 57.464 69.888C58.2747 70.4 59.0213 70.6773 59.704 70.72V72C58.8507 71.9147 57.8053 71.872 56.568 71.872C55.3307 71.8293 54.0933 71.808 52.856 71.808C51.192 71.808 49.6347 71.8293 48.184 71.872C46.7333 71.872 45.56 71.9147 44.664 72V70.72C46.84 70.6347 48.2267 70.272 48.824 69.632C49.4213 68.9493 49.2933 67.52 48.44 65.344L36.536 33.536L37.56 32.704L26.424 61.632C25.7413 63.3387 25.336 64.7893 25.208 65.984C25.08 67.136 25.1867 68.0533 25.528 68.736C25.912 69.4187 26.5307 69.9093 27.384 70.208C28.28 70.5067 29.3893 70.6773 30.712 70.72V72C29.5173 71.9147 28.2587 71.872 26.936 71.872C25.656 71.8293 24.4613 71.808 23.352 71.808C22.2853 71.808 21.368 71.8293 20.6 71.872C19.8747 71.872 19.192 71.9147 18.552 72V70.72C19.4053 70.5067 20.28 70.016 21.176 69.248C22.072 68.4373 22.8827 67.072 23.608 65.152L38.648 26.368C38.8187 26.368 38.9893 26.368 39.16 26.368C39.3307 26.368 39.5013 26.368 39.672 26.368ZM47.48 53.568V54.848H28.408L29.048 53.568H47.48Z" fill="#B88D51"/>
</svg>
